<svg xmlns="http://www.w3.org/2000/svg" xmlns:xlink="http://www.w3.org/1999/xlink" width="200" zoomAndPan="magnify" viewBox="0 0 150 149.999998" height="200" preserveAspectRatio="xMidYMid meet" version="1.0"><defs><g/><clipPath id="72a39d7ff5"><rect x="0" width="91" y="0" height="150"/></clipPath></defs><rect x="-15" width="180" fill="#ffffff" y="-15" height="179.999997" fill-opacity="1"/><rect x="-15" width="180" fill="#000000" y="-15" height="179.999997" fill-opacity="1"/><g fill="#ffffff" fill-opacity="1"><g transform="translate(15, 121.496021)"><g><path d="M 30.125 1.882812 C 21.945312 1.882812 15.386719 -0.695312 10.445312 -5.855469 C 5.519531 -11 3.054688 -18.035156 3.054688 -26.960938 L 3.054688 -77.085938 C 3.054688 -88.085938 5.265625 -96.410156 9.695312 -102.050781 C 14.171875 -107.757812 21.152344 -110.613281 30.632812 -110.613281 C 38.871094 -110.613281 45.519531 -108.34375 50.578125 -103.808594 C 55.667969 -99.246094 58.210938 -92.703125 58.210938 -84.175781 L 58.210938 -64.570312 L 34.824219 -64.570312 L 34.824219 -81.515625 C 34.824219 -84.46875 34.492188 -86.460938 33.824219 -87.5 C 33.234375 -88.414062 32.171875 -88.875 30.632812 -88.875 C 29.039062 -88.875 27.964844 -88.351562 27.414062 -87.308594 C 26.761719 -86.085938 26.4375 -84.242188 26.4375 -81.769531 L 26.4375 -27.214844 C 26.4375 -24.515625 26.816406 -22.585938 27.566406 -21.421875 C 28.238281 -20.378906 29.261719 -19.855469 30.632812 -19.855469 C 33.425781 -19.855469 34.824219 -22.308594 34.824219 -27.214844 L 34.824219 -47.703125 L 58.464844 -47.703125 L 58.464844 -26.328125 C 58.464844 -16.972656 56.089844 -9.933594 51.339844 -5.207031 C 46.59375 -0.480469 39.519531 1.882812 30.125 1.882812 Z M 30.125 0.140625 C 39.042969 0.140625 45.703125 -2.050781 50.113281 -6.4375 C 54.519531 -10.824219 56.722656 -17.457031 56.722656 -26.328125 L 56.722656 -46.832031 L 57.59375 -46.832031 L 57.59375 -45.964844 L 35.695312 -45.964844 L 35.695312 -46.832031 L 36.566406 -46.832031 L 36.566406 -27.214844 C 36.566406 -21.148438 34.585938 -18.117188 30.632812 -18.117188 C 28.628906 -18.117188 27.117188 -18.902344 26.101562 -20.476562 C 25.167969 -21.929688 24.699219 -24.175781 24.699219 -27.214844 L 24.699219 -81.769531 C 24.699219 -84.53125 25.089844 -86.648438 25.875 -88.125 C 26.757812 -89.785156 28.34375 -90.613281 30.632812 -90.613281 C 32.804688 -90.613281 34.355469 -89.890625 35.289062 -88.441406 C 36.140625 -87.117188 36.566406 -84.808594 36.566406 -81.515625 L 36.566406 -65.441406 L 35.695312 -65.441406 L 35.695312 -66.3125 L 57.339844 -66.3125 L 57.339844 -65.441406 L 56.46875 -65.441406 L 56.46875 -84.175781 C 56.46875 -92.183594 54.117188 -98.296875 49.417969 -102.511719 C 44.6875 -106.753906 38.425781 -108.871094 30.632812 -108.871094 C 21.714844 -108.871094 15.195312 -106.242188 11.0625 -100.976562 C 6.882812 -95.652344 4.792969 -87.6875 4.792969 -77.085938 L 4.792969 -26.960938 C 4.792969 -18.503906 7.097656 -11.867188 11.703125 -7.058594 C 16.300781 -2.257812 22.441406 0.140625 30.125 0.140625 Z M 30.125 0.140625 "/></g></g></g><g fill="#d1d5db" fill-opacity="1"><g transform="translate(15, 121.496021)"><g><path d="M 30.125 1.015625 C 22.195312 1.015625 15.847656 -1.472656 11.078125 -6.453125 C 6.304688 -11.429688 3.921875 -18.269531 3.921875 -26.96875 L 3.921875 -77.09375 C 3.921875 -87.882812 6.070312 -96.023438 10.375 -101.515625 C 14.675781 -107.003906 21.425781 -109.75 30.625 -109.75 C 38.644531 -109.75 45.101562 -107.550781 50 -103.15625 C 54.894531 -98.769531 57.34375 -92.441406 57.34375 -84.171875 L 57.34375 -65.4375 L 35.6875 -65.4375 L 35.6875 -81.515625 C 35.6875 -84.640625 35.304688 -86.789062 34.546875 -87.96875 C 33.796875 -89.15625 32.488281 -89.75 30.625 -89.75 C 28.6875 -89.75 27.359375 -89.070312 26.640625 -87.71875 C 25.921875 -86.363281 25.5625 -84.378906 25.5625 -81.765625 L 25.5625 -27.21875 C 25.5625 -24.34375 25.984375 -22.25 26.828125 -20.9375 C 27.671875 -19.632812 28.9375 -18.984375 30.625 -18.984375 C 34 -18.984375 35.6875 -21.726562 35.6875 -27.21875 L 35.6875 -46.828125 L 57.59375 -46.828125 L 57.59375 -26.328125 C 57.59375 -8.097656 48.4375 1.015625 30.125 1.015625 Z M 30.125 1.015625 "/></g></g></g><g transform="matrix(1, 0, 0, 1, 59, -0.000000000000007527)"><g clip-path="url(#72a39d7ff5)"><g fill="#ffffff" fill-opacity="1"><g transform="translate(15.917585, 128.931833)"><g><path d="M 4.808594 -109.613281 L 34.304688 -109.613281 C 42.492188 -109.613281 48.464844 -107.578125 52.226562 -103.507812 C 55.964844 -99.460938 57.835938 -92.933594 57.835938 -83.929688 L 57.835938 -79.121094 C 57.835938 -68.296875 53.910156 -61.8125 46.054688 -59.671875 L 45.824219 -60.511719 L 46.042969 -61.351562 C 50.875 -60.101562 54.277344 -57.191406 56.246094 -52.625 C 58.148438 -48.210938 59.101562 -42.402344 59.101562 -35.191406 C 59.101562 -23.472656 57.332031 -14.570312 53.792969 -8.488281 C 50.164062 -2.25 43.671875 0.871094 34.304688 0.871094 L 3.941406 0.871094 L 3.941406 -109.613281 Z M 4.808594 -107.871094 L 4.808594 -108.742188 L 5.679688 -108.742188 L 5.679688 0 L 4.808594 0 L 4.808594 -0.871094 L 34.304688 -0.871094 C 43.003906 -0.871094 48.996094 -3.699219 52.289062 -9.363281 C 55.671875 -15.175781 57.363281 -23.785156 57.363281 -35.191406 C 57.363281 -42.160156 56.457031 -47.742188 54.648438 -51.9375 C 52.902344 -55.980469 49.890625 -58.558594 45.609375 -59.667969 L 42.441406 -60.488281 L 45.597656 -61.351562 C 52.597656 -63.257812 56.09375 -69.183594 56.09375 -79.121094 L 56.09375 -83.929688 C 56.09375 -92.480469 54.378906 -98.613281 50.945312 -102.328125 C 47.53125 -106.023438 41.984375 -107.871094 34.304688 -107.871094 Z M 30.507812 -68.722656 C 32 -68.722656 33.007812 -69.253906 33.523438 -70.320312 C 34.140625 -71.59375 34.449219 -73.429688 34.449219 -75.828125 L 34.449219 -86.714844 C 34.449219 -88.269531 34.128906 -89.40625 33.496094 -90.128906 C 32.886719 -90.816406 31.933594 -91.160156 30.636719 -91.160156 L 26.078125 -91.160156 L 26.078125 -92.03125 L 26.949219 -92.03125 L 26.949219 -67.851562 L 26.078125 -67.851562 L 26.078125 -68.722656 Z M 30.507812 -66.984375 L 25.207031 -66.984375 L 25.207031 -92.902344 L 30.636719 -92.902344 C 32.457031 -92.902344 33.847656 -92.359375 34.800781 -91.277344 C 35.726562 -90.226562 36.1875 -88.707031 36.1875 -86.714844 L 36.1875 -75.828125 C 36.1875 -73.164062 35.824219 -71.074219 35.089844 -69.5625 C 34.253906 -67.84375 32.730469 -66.984375 30.507812 -66.984375 Z M 28.230469 -19.984375 C 30.824219 -19.984375 32.746094 -20.582031 33.988281 -21.769531 C 35.222656 -22.949219 35.839844 -24.765625 35.839844 -27.21875 L 35.839844 -40.761719 C 35.839844 -43.898438 35.394531 -46.242188 34.5 -47.796875 C 33.699219 -49.195312 32.242188 -49.894531 30.128906 -49.894531 L 26.078125 -49.894531 L 26.078125 -50.761719 L 26.949219 -50.761719 L 26.949219 -19.242188 L 26.078125 -19.242188 L 26.128906 -20.109375 L 28.28125 -19.984375 L 28.230469 -19.113281 Z M 28.203125 -18.246094 L 25.207031 -18.421875 L 25.207031 -51.632812 L 30.128906 -51.632812 C 32.910156 -51.632812 34.871094 -50.644531 36.011719 -48.664062 C 37.058594 -46.84375 37.582031 -44.207031 37.582031 -40.761719 L 37.582031 -27.21875 C 37.582031 -24.269531 36.785156 -22.03125 35.191406 -20.511719 C 33.609375 -19 31.289062 -18.246094 28.230469 -18.246094 Z M 28.203125 -18.246094 "/></g></g></g><g fill="#6d28d9" fill-opacity="1"><g transform="translate(15.917585, 128.931833)"><g><path d="M 4.8125 -108.75 L 34.3125 -108.75 C 42.238281 -108.75 47.992188 -106.804688 51.578125 -102.921875 C 55.171875 -99.035156 56.96875 -92.707031 56.96875 -83.9375 L 56.96875 -79.125 C 56.96875 -68.738281 53.253906 -62.535156 45.828125 -60.515625 C 50.378906 -59.328125 53.582031 -56.582031 55.4375 -52.28125 C 57.300781 -47.976562 58.234375 -42.28125 58.234375 -35.1875 C 58.234375 -23.625 56.503906 -14.867188 53.046875 -8.921875 C 49.585938 -2.972656 43.34375 0 34.3125 0 L 4.8125 0 Z M 30.515625 -67.859375 C 32.367188 -67.859375 33.628906 -68.550781 34.296875 -69.9375 C 34.972656 -71.332031 35.3125 -73.296875 35.3125 -75.828125 L 35.3125 -86.71875 C 35.3125 -90.257812 33.753906 -92.03125 30.640625 -92.03125 L 26.078125 -92.03125 L 26.078125 -67.859375 Z M 28.234375 -19.109375 C 33.890625 -19.109375 36.71875 -21.8125 36.71875 -27.21875 L 36.71875 -40.765625 C 36.71875 -44.054688 36.226562 -46.546875 35.25 -48.234375 C 34.28125 -49.921875 32.570312 -50.765625 30.125 -50.765625 L 26.078125 -50.765625 L 26.078125 -19.25 Z M 28.234375 -19.109375 "/></g></g></g></g></g></svg>